M48
;Layer_Color=9474304
;FILE_FORMAT=4:4
METRIC,LZ
;TYPE=PLATED
T1F00S00C0.8000
T2F00S00C0.9000
T3F00S00C0.9700
T4F00S00C1.0000
T5F00S00C2.3500
%
T01
X00276Y00446
X003268
T02
X002338Y00044
X002592
X002846
X0031
X003354
X003608
X00539Y001734
Y001988
Y002242
Y002496
Y00275
Y003004
Y003258
Y003512
X00419Y003544
Y00329
Y003036
X004096Y00436
X00435
X004604
X004858
X003842
X00201Y00423
X001974Y00389
X00172
X001466
X001212
X00136Y00423
Y00468
X00201
X000958Y00389
T03
X00045Y00245
X00065
Y0027
X00045
T04
X00485Y00062
Y001383
X005253Y00062
X005507
T05
X000179Y001973
Y003177
M30
