G04*
G04 #@! TF.GenerationSoftware,Altium Limited,Altium Designer,21.2.2 (38)*
G04*
G04 Layer_Physical_Order=2*
G04 Layer_Color=16711680*
%FSLAX44Y44*%
%MOMM*%
G71*
G04*
G04 #@! TF.SameCoordinates,65BCBFC0-CC6D-41C1-BC89-201EEE636090*
G04*
G04*
G04 #@! TF.FilePolarity,Positive*
G04*
G01*
G75*
%ADD10R,1.3000X1.0000*%
%ADD11R,1.0000X1.3000*%
G04:AMPARAMS|DCode=12|XSize=2mm|YSize=0.55mm|CornerRadius=0.0688mm|HoleSize=0mm|Usage=FLASHONLY|Rotation=0.000|XOffset=0mm|YOffset=0mm|HoleType=Round|Shape=RoundedRectangle|*
%AMROUNDEDRECTD12*
21,1,2.0000,0.4125,0,0,0.0*
21,1,1.8625,0.5500,0,0,0.0*
1,1,0.1375,0.9313,-0.2063*
1,1,0.1375,-0.9313,-0.2063*
1,1,0.1375,-0.9313,0.2063*
1,1,0.1375,0.9313,0.2063*
%
%ADD12ROUNDEDRECTD12*%
G04:AMPARAMS|DCode=13|XSize=2mm|YSize=0.55mm|CornerRadius=0.0688mm|HoleSize=0mm|Usage=FLASHONLY|Rotation=270.000|XOffset=0mm|YOffset=0mm|HoleType=Round|Shape=RoundedRectangle|*
%AMROUNDEDRECTD13*
21,1,2.0000,0.4125,0,0,270.0*
21,1,1.8625,0.5500,0,0,270.0*
1,1,0.1375,-0.2063,-0.9313*
1,1,0.1375,-0.2063,0.9313*
1,1,0.1375,0.2063,0.9313*
1,1,0.1375,0.2063,-0.9313*
%
%ADD13ROUNDEDRECTD13*%
%ADD14R,1.2000X3.0000*%
%ADD15R,1.5000X1.1000*%
%ADD16R,1.2000X1.5000*%
%ADD17R,1.0000X1.0000*%
%ADD18C,0.3810*%
%ADD19C,1.0000*%
%ADD20C,0.7000*%
%ADD21R,1.8000X1.8000*%
%ADD22C,1.8000*%
%ADD23C,2.0000*%
%ADD24R,2.0000X2.0000*%
G04:AMPARAMS|DCode=25|XSize=2mm|YSize=2mm|CornerRadius=0.5mm|HoleSize=0mm|Usage=FLASHONLY|Rotation=180.000|XOffset=0mm|YOffset=0mm|HoleType=Round|Shape=RoundedRectangle|*
%AMROUNDEDRECTD25*
21,1,2.0000,1.0000,0,0,180.0*
21,1,1.0000,2.0000,0,0,180.0*
1,1,1.0000,-0.5000,0.5000*
1,1,1.0000,0.5000,0.5000*
1,1,1.0000,0.5000,-0.5000*
1,1,1.0000,-0.5000,-0.5000*
%
%ADD25ROUNDEDRECTD25*%
%ADD26R,2.0000X2.0000*%
G04:AMPARAMS|DCode=27|XSize=2mm|YSize=2mm|CornerRadius=0.5mm|HoleSize=0mm|Usage=FLASHONLY|Rotation=270.000|XOffset=0mm|YOffset=0mm|HoleType=Round|Shape=RoundedRectangle|*
%AMROUNDEDRECTD27*
21,1,2.0000,1.0000,0,0,270.0*
21,1,1.0000,2.0000,0,0,270.0*
1,1,1.0000,-0.5000,-0.5000*
1,1,1.0000,-0.5000,0.5000*
1,1,1.0000,0.5000,0.5000*
1,1,1.0000,0.5000,-0.5000*
%
%ADD27ROUNDEDRECTD27*%
%ADD28C,3.3660*%
%ADD29C,1.6000*%
%ADD30R,1.6000X1.6000*%
G36*
X581414Y497063D02*
X585666Y495302D01*
X589492Y492746D01*
X592746Y489492D01*
X595302Y485666D01*
X597063Y481414D01*
X597961Y476901D01*
Y474600D01*
Y25400D01*
Y23099D01*
X597063Y18586D01*
X595302Y14334D01*
X592746Y10508D01*
X589492Y7254D01*
X585666Y4698D01*
X581414Y2937D01*
X576901Y2039D01*
X23099D01*
X18586Y2937D01*
X14334Y4698D01*
X10508Y7254D01*
X7254Y10508D01*
X4698Y14334D01*
X2937Y18586D01*
X2039Y23099D01*
Y25400D01*
Y474600D01*
Y476901D01*
X2937Y481414D01*
X4698Y485666D01*
X7254Y489492D01*
X10508Y492746D01*
X14334Y495302D01*
X18586Y497063D01*
X23099Y497961D01*
X576901D01*
X581414Y497063D01*
D02*
G37*
%LPC*%
G36*
X99000Y327000D02*
X83000D01*
Y300886D01*
X71905D01*
X70381Y300583D01*
X69090Y299720D01*
X48672Y279303D01*
X47611Y279743D01*
X45000Y280086D01*
X42389Y279743D01*
X39957Y278735D01*
X37868Y277132D01*
X36265Y275043D01*
X35257Y272610D01*
X34914Y270000D01*
X35257Y267390D01*
X36265Y264957D01*
X37868Y262868D01*
X39957Y261265D01*
X42389Y260257D01*
X45000Y259914D01*
X47611Y260257D01*
X50043Y261265D01*
X52132Y262868D01*
X53735Y264957D01*
X54313Y266352D01*
X55687D01*
X56265Y264957D01*
X57868Y262868D01*
X59957Y261265D01*
X62389Y260257D01*
X65000Y259914D01*
X67611Y260257D01*
X70043Y261265D01*
X72132Y262868D01*
X73735Y264957D01*
X74175Y266019D01*
X83000D01*
Y257000D01*
X99000D01*
Y291000D01*
X83000D01*
Y273981D01*
X74175D01*
X73735Y275043D01*
X72132Y277132D01*
X70043Y278735D01*
X67611Y279743D01*
X65000Y280086D01*
X62389Y279743D01*
X62014Y279587D01*
X61294Y280664D01*
X73554Y292924D01*
X86905D01*
X87290Y293000D01*
X99000D01*
Y327000D01*
D02*
G37*
G36*
X516000Y495060D02*
X109000D01*
X107173Y494820D01*
X105470Y494114D01*
X104008Y492992D01*
X86007Y474992D01*
X84886Y473530D01*
X84180Y471827D01*
X83940Y470000D01*
Y423000D01*
X84000Y422541D01*
Y416000D01*
X90541D01*
X91000Y415940D01*
X91459Y416000D01*
X98000D01*
Y422541D01*
X98060Y423000D01*
Y467076D01*
X111924Y480940D01*
X159940D01*
Y458000D01*
X160180Y456173D01*
X160886Y454470D01*
X162008Y453008D01*
X176007Y439008D01*
X177470Y437886D01*
X179173Y437180D01*
X181000Y436940D01*
X210075D01*
X228940Y418075D01*
Y382000D01*
X229180Y380173D01*
X229886Y378470D01*
X231008Y377008D01*
X248008Y360008D01*
X249470Y358885D01*
X251173Y358180D01*
X253000Y357940D01*
X265500D01*
Y356500D01*
X267519D01*
Y345500D01*
X267822Y343976D01*
X268685Y342685D01*
X272019Y339351D01*
Y332376D01*
X271798Y332211D01*
X270075Y332504D01*
X269970Y332660D01*
X245815Y356815D01*
X244524Y357678D01*
X243000Y357981D01*
X214649D01*
X201381Y371249D01*
Y377660D01*
X203452Y378518D01*
X205958Y380442D01*
X207882Y382948D01*
X209091Y385867D01*
X209504Y389000D01*
X209091Y392133D01*
X207882Y395052D01*
X205958Y397559D01*
X203452Y399482D01*
X203181Y399594D01*
Y411184D01*
X204133Y411309D01*
X207052Y412518D01*
X209559Y414441D01*
X211482Y416948D01*
X212691Y419867D01*
X213104Y423000D01*
X212691Y426133D01*
X211482Y429052D01*
X209559Y431558D01*
X207052Y433482D01*
X204133Y434691D01*
X201000Y435103D01*
X197867Y434691D01*
X194948Y433482D01*
X192442Y431558D01*
X190518Y429052D01*
X189660Y426982D01*
X147339D01*
X146482Y429052D01*
X144558Y431558D01*
X142052Y433482D01*
X139133Y434691D01*
X136000Y435103D01*
X132867Y434691D01*
X129948Y433482D01*
X127442Y431558D01*
X125518Y429052D01*
X124661Y426982D01*
X114000D01*
Y430000D01*
X100000D01*
Y416000D01*
X114000D01*
Y419019D01*
X124661D01*
X125518Y416948D01*
X127442Y414441D01*
X129948Y412518D01*
X132867Y411309D01*
X136000Y410896D01*
X139133Y411309D01*
X142052Y412518D01*
X144558Y414441D01*
X146482Y416948D01*
X147339Y419019D01*
X189660D01*
X190518Y416948D01*
X192442Y414441D01*
X194948Y412518D01*
X195219Y412406D01*
Y400816D01*
X194267Y400691D01*
X191348Y399482D01*
X188841Y397559D01*
X186918Y395052D01*
X185709Y392133D01*
X185415Y389905D01*
X185340Y389335D01*
X184060D01*
X183985Y389904D01*
X183691Y392133D01*
X182482Y395052D01*
X180558Y397559D01*
X178052Y399482D01*
X175133Y400691D01*
X172000Y401104D01*
X168867Y400691D01*
X165948Y399482D01*
X163442Y397559D01*
X161518Y395052D01*
X160309Y392133D01*
X160016Y389905D01*
X159940Y389335D01*
X158660D01*
X158584Y389904D01*
X158291Y392133D01*
X157082Y395052D01*
X155159Y397559D01*
X152652Y399482D01*
X149733Y400691D01*
X146600Y401104D01*
X143467Y400691D01*
X140548Y399482D01*
X138041Y397559D01*
X136118Y395052D01*
X134909Y392133D01*
X134615Y389905D01*
X134540Y389335D01*
X133260D01*
X133184Y389904D01*
X132891Y392133D01*
X131682Y395052D01*
X129759Y397559D01*
X127252Y399482D01*
X124333Y400691D01*
X121200Y401104D01*
X118067Y400691D01*
X115148Y399482D01*
X112641Y397559D01*
X110718Y395052D01*
X109509Y392133D01*
X109096Y389000D01*
X109509Y385867D01*
X110718Y382948D01*
X112641Y380442D01*
X115148Y378518D01*
X117219Y377660D01*
Y353800D01*
X117522Y352276D01*
X118385Y350985D01*
X154185Y315185D01*
X155476Y314322D01*
X157000Y314018D01*
X176351D01*
X211185Y279185D01*
X212476Y278322D01*
X214000Y278018D01*
X230435D01*
X230704Y277753D01*
X231284Y276749D01*
X231147Y276063D01*
Y271938D01*
X231284Y271252D01*
X230704Y270247D01*
X230435Y269981D01*
X212649D01*
X199815Y282815D01*
X198524Y283678D01*
X197000Y283981D01*
X189500D01*
Y288500D01*
X175500D01*
Y271500D01*
X189500D01*
Y276019D01*
X195351D01*
X208118Y263251D01*
X208097Y262966D01*
X207699Y261982D01*
X191500D01*
Y266500D01*
X175500D01*
Y247500D01*
X191500D01*
Y254018D01*
X231938D01*
X231950Y254000D01*
X232839Y253406D01*
X233888Y253197D01*
X252512D01*
X253561Y253406D01*
X254450Y254000D01*
X255044Y254889D01*
X255253Y255938D01*
Y260063D01*
X255116Y260749D01*
X255696Y261753D01*
X255965Y262019D01*
X266000D01*
X267524Y262322D01*
X268815Y263185D01*
X278815Y273185D01*
X279678Y274476D01*
X279981Y276000D01*
Y303538D01*
X280000Y303550D01*
X280594Y304439D01*
X280803Y305487D01*
Y310713D01*
X282073Y311391D01*
X282476Y311122D01*
X284000Y310819D01*
X285524Y311122D01*
X285927Y311391D01*
X287197Y310713D01*
Y305487D01*
X287406Y304439D01*
X288000Y303550D01*
X288889Y302956D01*
X289937Y302747D01*
X294062D01*
X295111Y302956D01*
X296000Y303550D01*
X296889Y302956D01*
X297938Y302747D01*
X302062D01*
X303111Y302956D01*
X304000Y303550D01*
X304889Y302956D01*
X305938Y302747D01*
X310063D01*
X311111Y302956D01*
X312000Y303550D01*
X312889Y302956D01*
X313937Y302747D01*
X318062D01*
X319111Y302956D01*
X320000Y303550D01*
X320889Y302956D01*
X321937Y302747D01*
X326063D01*
X327111Y302956D01*
X328000Y303550D01*
X328889Y302956D01*
X329938Y302747D01*
X334062D01*
X335111Y302956D01*
X336000Y303550D01*
X336889Y302956D01*
X337938Y302747D01*
X342062D01*
X343111Y302956D01*
X344000Y303550D01*
X344594Y304439D01*
X344803Y305487D01*
Y313018D01*
X354000D01*
X355524Y313322D01*
X356815Y314185D01*
X391815Y349185D01*
X392678Y350476D01*
X392981Y352000D01*
Y362351D01*
X422649Y392019D01*
X470000D01*
X471524Y392322D01*
X472815Y393185D01*
X488615Y408985D01*
X489478Y410276D01*
X489781Y411800D01*
Y424660D01*
X491852Y425518D01*
X494358Y427441D01*
X496282Y429948D01*
X497491Y432867D01*
X497904Y436000D01*
X497491Y439133D01*
X496282Y442052D01*
X494358Y444558D01*
X491852Y446482D01*
X488933Y447691D01*
X485800Y448103D01*
X482667Y447691D01*
X479748Y446482D01*
X477242Y444558D01*
X475318Y442052D01*
X474109Y439133D01*
X473815Y436904D01*
X473740Y436334D01*
X472460D01*
X472384Y436904D01*
X472091Y439133D01*
X470882Y442052D01*
X468959Y444558D01*
X466452Y446482D01*
X463533Y447691D01*
X460400Y448103D01*
X457267Y447691D01*
X454348Y446482D01*
X451842Y444558D01*
X449918Y442052D01*
X448709Y439133D01*
X448415Y436904D01*
X448340Y436334D01*
X447060D01*
X446984Y436904D01*
X446691Y439133D01*
X445482Y442052D01*
X443559Y444558D01*
X441052Y446482D01*
X438133Y447691D01*
X435000Y448103D01*
X431867Y447691D01*
X428948Y446482D01*
X426441Y444558D01*
X424518Y442052D01*
X423309Y439133D01*
X423016Y436904D01*
X422940Y436334D01*
X421660D01*
X421585Y436904D01*
X421291Y439133D01*
X420082Y442052D01*
X418158Y444558D01*
X415652Y446482D01*
X412733Y447691D01*
X409600Y448103D01*
X406467Y447691D01*
X403548Y446482D01*
X401041Y444558D01*
X399118Y442052D01*
X397909Y439133D01*
X397496Y436000D01*
X397909Y432867D01*
X399118Y429948D01*
X401041Y427441D01*
X401844Y426825D01*
X401927Y425558D01*
X389451Y413082D01*
X388181Y413608D01*
Y424000D01*
X396200D01*
Y448000D01*
X372200D01*
Y424000D01*
X380219D01*
Y413849D01*
X318155Y351786D01*
X316982Y352272D01*
Y430551D01*
X320431Y434000D01*
X338800D01*
Y458000D01*
X332481D01*
Y460500D01*
X336500D01*
Y477500D01*
X322500D01*
Y460500D01*
X324519D01*
Y458000D01*
X314800D01*
Y439631D01*
X310185Y435015D01*
X309322Y433724D01*
X309018Y432200D01*
Y420408D01*
X307749Y419882D01*
X288000Y439631D01*
Y458000D01*
X279482D01*
Y460500D01*
X281500D01*
Y477500D01*
X267500D01*
Y460500D01*
X271518D01*
Y458000D01*
X264000D01*
Y434000D01*
X282369D01*
X302019Y414351D01*
Y354649D01*
X293752Y346382D01*
X292481Y346908D01*
Y365000D01*
X292178Y366524D01*
X291315Y367815D01*
X290024Y368678D01*
X288500Y368982D01*
X286976Y368678D01*
X285685Y367815D01*
X284822Y366524D01*
X284519Y365000D01*
Y347149D01*
X281185Y343815D01*
X280748Y343162D01*
X279252Y343162D01*
X278815Y343815D01*
X275481Y347149D01*
Y356500D01*
X279500D01*
Y373500D01*
X265500D01*
Y372060D01*
X255924D01*
X243060Y384925D01*
Y421000D01*
X242820Y422827D01*
X242115Y424530D01*
X240993Y425992D01*
X217992Y448992D01*
X216530Y450115D01*
X214827Y450820D01*
X213000Y451060D01*
X183925D01*
X174060Y460924D01*
Y480940D01*
X513075D01*
X564940Y429076D01*
Y390060D01*
X428000D01*
X426173Y389820D01*
X424470Y389114D01*
X423008Y387992D01*
X415921Y380906D01*
X414799Y379444D01*
X414094Y377741D01*
X413853Y375913D01*
Y365257D01*
X412948Y364882D01*
X410442Y362958D01*
X408518Y360452D01*
X407309Y357533D01*
X406896Y354400D01*
X407309Y351267D01*
X408518Y348348D01*
X410442Y345841D01*
X412948Y343918D01*
X415867Y342709D01*
X419000Y342296D01*
X422133Y342709D01*
X425052Y343918D01*
X427017Y345426D01*
X435218D01*
X436940Y343704D01*
Y312382D01*
X435218Y310660D01*
X428708D01*
X427559Y312159D01*
X425052Y314082D01*
X422133Y315291D01*
X419000Y315704D01*
X415867Y315291D01*
X412948Y314082D01*
X410442Y312159D01*
X408518Y309652D01*
X407309Y306733D01*
X407013Y304484D01*
X405502D01*
X403979Y304181D01*
X402687Y303318D01*
X401851Y302481D01*
X395500D01*
Y306500D01*
X378500D01*
Y297131D01*
X375351Y293981D01*
X368063D01*
X368050Y294000D01*
X367161Y294594D01*
X366113Y294803D01*
X347487D01*
X346439Y294594D01*
X345550Y294000D01*
X344956Y293111D01*
X344747Y292062D01*
Y287938D01*
X344956Y286889D01*
X345550Y286000D01*
X344956Y285111D01*
X344747Y284062D01*
Y279937D01*
X344956Y278889D01*
X345550Y278000D01*
X344956Y277111D01*
X344747Y276063D01*
Y271938D01*
X344956Y270889D01*
X345550Y270000D01*
X344956Y269111D01*
X344747Y268062D01*
Y263937D01*
X344956Y262889D01*
X345550Y262000D01*
X344956Y261111D01*
X344747Y260063D01*
Y255938D01*
X344956Y254889D01*
X345550Y254000D01*
X344956Y253111D01*
X344747Y252062D01*
Y247938D01*
X344956Y246889D01*
X345550Y246000D01*
X344956Y245111D01*
X344747Y244062D01*
Y239937D01*
X344956Y238889D01*
X345550Y238000D01*
X344956Y237111D01*
X344747Y236063D01*
Y231938D01*
X344956Y230889D01*
X345550Y230000D01*
X344956Y229111D01*
X344747Y228062D01*
Y223937D01*
X344956Y222889D01*
X345550Y222000D01*
X344956Y221111D01*
X344747Y220063D01*
Y215938D01*
X344956Y214889D01*
X345550Y214000D01*
X346439Y213406D01*
X347487Y213197D01*
X357525D01*
X357645Y213174D01*
X357765Y213197D01*
X366113D01*
X367161Y213406D01*
X368050Y214000D01*
X368063Y214018D01*
X376851D01*
X383500Y207369D01*
Y198000D01*
X402500D01*
Y213000D01*
X389131D01*
X381382Y220749D01*
X381403Y221034D01*
X381801Y222019D01*
X438351D01*
X489785Y170585D01*
X491076Y169722D01*
X492600Y169419D01*
X526940D01*
Y168400D01*
X527180Y166573D01*
X527886Y164870D01*
X529007Y163407D01*
X530470Y162285D01*
X532173Y161580D01*
X534000Y161340D01*
X535019D01*
Y149649D01*
X527651Y142282D01*
X495257D01*
X494608Y143848D01*
X492845Y146145D01*
X490547Y147908D01*
X487872Y149017D01*
X485000Y149395D01*
X482128Y149017D01*
X479453Y147908D01*
X477155Y146145D01*
X475392Y143848D01*
X474283Y141172D01*
X473905Y138300D01*
X474283Y135428D01*
X475392Y132753D01*
X477155Y130455D01*
X479453Y128692D01*
X482128Y127583D01*
X485000Y127205D01*
X487872Y127583D01*
X490547Y128692D01*
X492845Y130455D01*
X494608Y132753D01*
X495257Y134319D01*
X529300D01*
X530824Y134622D01*
X532115Y135485D01*
X541815Y145185D01*
X542678Y146476D01*
X542981Y148000D01*
Y161340D01*
X544000D01*
X545827Y161580D01*
X547530Y162285D01*
X548993Y163407D01*
X550115Y164870D01*
X550820Y166573D01*
X551060Y168400D01*
Y178400D01*
X550820Y180227D01*
X550115Y181930D01*
X548993Y183393D01*
X547530Y184515D01*
X545827Y185220D01*
X544000Y185460D01*
X534000D01*
X532173Y185220D01*
X530470Y184515D01*
X529007Y183393D01*
X527886Y181930D01*
X527180Y180227D01*
X526940Y178400D01*
Y177381D01*
X494249D01*
X442882Y228748D01*
X442903Y229034D01*
X443301Y230019D01*
X450351D01*
X484385Y195985D01*
X485676Y195122D01*
X487200Y194818D01*
X526940D01*
Y193800D01*
X527180Y191973D01*
X527886Y190270D01*
X529007Y188808D01*
X530470Y187686D01*
X532173Y186980D01*
X534000Y186740D01*
X544000D01*
X545827Y186980D01*
X547530Y187686D01*
X548993Y188808D01*
X550115Y190270D01*
X550820Y191973D01*
X551060Y193800D01*
Y203800D01*
X550820Y205627D01*
X550115Y207330D01*
X548993Y208792D01*
X547530Y209914D01*
X545827Y210620D01*
X544000Y210860D01*
X534000D01*
X532173Y210620D01*
X530470Y209914D01*
X529007Y208792D01*
X527886Y207330D01*
X527180Y205627D01*
X526940Y203800D01*
Y202782D01*
X488849D01*
X454882Y236749D01*
X454903Y237034D01*
X455301Y238018D01*
X470351D01*
X486985Y221385D01*
X488276Y220522D01*
X489800Y220219D01*
X526940D01*
Y219200D01*
X527180Y217373D01*
X527886Y215670D01*
X529007Y214207D01*
X530470Y213085D01*
X532173Y212380D01*
X534000Y212140D01*
X544000D01*
X545827Y212380D01*
X547530Y213085D01*
X548993Y214207D01*
X550115Y215670D01*
X550820Y217373D01*
X551060Y219200D01*
Y229200D01*
X550820Y231027D01*
X550115Y232730D01*
X548993Y234193D01*
X547530Y235315D01*
X545827Y236020D01*
X544000Y236260D01*
X534000D01*
X532173Y236020D01*
X530470Y235315D01*
X529007Y234193D01*
X527886Y232730D01*
X527180Y231027D01*
X526940Y229200D01*
Y228181D01*
X491449D01*
X475082Y244548D01*
X475395Y245599D01*
X475556Y245819D01*
X526940D01*
Y244600D01*
X527180Y242773D01*
X527886Y241070D01*
X529007Y239608D01*
X530470Y238486D01*
X532173Y237780D01*
X534000Y237540D01*
X544000D01*
X545827Y237780D01*
X547530Y238486D01*
X548993Y239608D01*
X550115Y241070D01*
X550820Y242773D01*
X551060Y244600D01*
Y254600D01*
X550820Y256427D01*
X550115Y258130D01*
X548993Y259592D01*
X547530Y260714D01*
X545827Y261420D01*
X544000Y261660D01*
X534000D01*
X532173Y261420D01*
X530470Y260714D01*
X529007Y259592D01*
X527886Y258130D01*
X527180Y256427D01*
X526940Y254600D01*
Y253782D01*
X469001D01*
X468616Y255051D01*
X468815Y255185D01*
X484649Y271019D01*
X526940D01*
Y270000D01*
X527180Y268173D01*
X527886Y266470D01*
X529007Y265007D01*
X530470Y263885D01*
X532173Y263180D01*
X534000Y262940D01*
X544000D01*
X545827Y263180D01*
X547530Y263885D01*
X548993Y265007D01*
X550115Y266470D01*
X550820Y268173D01*
X551060Y270000D01*
Y280000D01*
X550820Y281827D01*
X550115Y283530D01*
X548993Y284993D01*
X547530Y286115D01*
X545827Y286820D01*
X544000Y287060D01*
X534000D01*
X532173Y286820D01*
X530470Y286115D01*
X529007Y284993D01*
X527886Y283530D01*
X527180Y281827D01*
X526940Y280000D01*
Y278981D01*
X483000D01*
X481476Y278678D01*
X480185Y277815D01*
X464351Y261982D01*
X460301D01*
X459903Y262966D01*
X459882Y263251D01*
X493049Y296418D01*
X526940D01*
Y295400D01*
X527180Y293573D01*
X527886Y291870D01*
X529007Y290408D01*
X530470Y289286D01*
X532173Y288580D01*
X534000Y288340D01*
X544000D01*
X545827Y288580D01*
X547530Y289286D01*
X548993Y290408D01*
X550115Y291870D01*
X550820Y293573D01*
X551060Y295400D01*
Y305400D01*
X550820Y307227D01*
X550115Y308930D01*
X548993Y310392D01*
X547530Y311514D01*
X545827Y312220D01*
X544000Y312460D01*
X534000D01*
X532173Y312220D01*
X530470Y311514D01*
X529007Y310392D01*
X527886Y308930D01*
X527180Y307227D01*
X526940Y305400D01*
Y304382D01*
X491400D01*
X489876Y304078D01*
X488585Y303215D01*
X455351Y269981D01*
X452301D01*
X451903Y270966D01*
X451882Y271252D01*
X475815Y295185D01*
X476678Y296476D01*
X476982Y298000D01*
Y314351D01*
X485649Y323018D01*
X526940D01*
Y320800D01*
X527180Y318973D01*
X527886Y317270D01*
X529007Y315807D01*
X530470Y314685D01*
X532173Y313980D01*
X534000Y313740D01*
X544000D01*
X545827Y313980D01*
X547530Y314685D01*
X548993Y315807D01*
X550115Y317270D01*
X550820Y318973D01*
X551060Y320800D01*
Y330800D01*
X550820Y332627D01*
X550115Y334330D01*
X548993Y335793D01*
X547530Y336914D01*
X545827Y337620D01*
X544000Y337860D01*
X534000D01*
X532173Y337620D01*
X530470Y336914D01*
X529007Y335793D01*
X527886Y334330D01*
X527180Y332627D01*
X526964Y330981D01*
X484000D01*
X482476Y330678D01*
X481185Y329815D01*
X470185Y318815D01*
X469322Y317524D01*
X469019Y316000D01*
Y299649D01*
X447351Y277981D01*
X444301D01*
X443903Y278966D01*
X443882Y279251D01*
X463815Y299185D01*
X464678Y300476D01*
X464981Y302000D01*
Y341351D01*
X470849Y347219D01*
X527000D01*
Y339200D01*
X551000D01*
Y363200D01*
X527000D01*
Y355182D01*
X469200D01*
X467676Y354878D01*
X466385Y354015D01*
X458185Y345815D01*
X457322Y344524D01*
X457019Y343000D01*
Y303649D01*
X439351Y285982D01*
X380301D01*
X379903Y286966D01*
X379882Y287251D01*
X385131Y292500D01*
X395500D01*
Y294519D01*
X403500D01*
X405024Y294822D01*
X406315Y295685D01*
X407151Y296521D01*
X409306D01*
X410442Y295042D01*
X412948Y293118D01*
X415867Y291909D01*
X419000Y291496D01*
X422133Y291909D01*
X425052Y293118D01*
X427559Y295042D01*
X428708Y296540D01*
X438142D01*
X439969Y296780D01*
X441672Y297486D01*
X443135Y298608D01*
X448992Y304465D01*
X450115Y305928D01*
X450820Y307631D01*
X451060Y309458D01*
Y346629D01*
X450820Y348456D01*
X450115Y350159D01*
X448992Y351621D01*
X443135Y357479D01*
X441672Y358601D01*
X439969Y359306D01*
X438142Y359547D01*
X429857D01*
X429482Y360452D01*
X427974Y362417D01*
Y372989D01*
X430924Y375940D01*
X563075D01*
X564940Y374076D01*
Y140925D01*
X530075Y106060D01*
X399060D01*
Y149000D01*
X398820Y150827D01*
X398115Y152530D01*
X396992Y153993D01*
X379992Y170992D01*
X378530Y172115D01*
X376827Y172820D01*
X375000Y173060D01*
X363500D01*
Y174500D01*
X361482D01*
Y193500D01*
X361178Y195024D01*
X360315Y196315D01*
X352615Y204015D01*
X351324Y204878D01*
X349800Y205182D01*
X344803D01*
Y210513D01*
X344594Y211561D01*
X344000Y212450D01*
X343111Y213044D01*
X342062Y213253D01*
X337938D01*
X336889Y213044D01*
X336000Y212450D01*
X335406Y211561D01*
X335197Y210513D01*
Y205287D01*
X333927Y204609D01*
X333524Y204878D01*
X332000Y205182D01*
X330476Y204878D01*
X330073Y204609D01*
X328803Y205287D01*
Y210513D01*
X328594Y211561D01*
X328000Y212450D01*
X327111Y213044D01*
X326063Y213253D01*
X321937D01*
X320889Y213044D01*
X320000Y212450D01*
X319111Y213044D01*
X318062Y213253D01*
X313937D01*
X312889Y213044D01*
X312000Y212450D01*
X311111Y213044D01*
X310063Y213253D01*
X305938D01*
X304889Y213044D01*
X304000Y212450D01*
X303111Y213044D01*
X302062Y213253D01*
X297938D01*
X296889Y213044D01*
X296000Y212450D01*
X295111Y213044D01*
X294062Y213253D01*
X289937D01*
X288889Y213044D01*
X288000Y212450D01*
X287111Y213044D01*
X286063Y213253D01*
X281938D01*
X280889Y213044D01*
X280000Y212450D01*
X279111Y213044D01*
X278062Y213253D01*
X273937D01*
X272889Y213044D01*
X272000Y212450D01*
X271406Y211561D01*
X271197Y210513D01*
Y191887D01*
X271406Y190839D01*
X272000Y189950D01*
X272019Y189937D01*
Y150536D01*
X271770Y150370D01*
X270500Y151000D01*
Y151000D01*
X253500D01*
Y137000D01*
X270500D01*
Y140019D01*
X272000D01*
X273524Y140322D01*
X274815Y141185D01*
X278748Y145118D01*
X279034Y145097D01*
X280019Y144699D01*
Y129649D01*
X230985Y80615D01*
X230122Y79324D01*
X229818Y77800D01*
Y56000D01*
X221800D01*
Y32000D01*
X245800D01*
Y56000D01*
X237782D01*
Y76151D01*
X286749Y125118D01*
X287034Y125097D01*
X288018Y124699D01*
Y120649D01*
X256385Y89015D01*
X255522Y87724D01*
X255219Y86200D01*
Y56060D01*
X254200D01*
X252373Y55820D01*
X250670Y55114D01*
X249207Y53993D01*
X248085Y52530D01*
X247380Y50827D01*
X247140Y49000D01*
Y39000D01*
X247380Y37173D01*
X248085Y35470D01*
X249207Y34008D01*
X250670Y32885D01*
X252373Y32180D01*
X254200Y31940D01*
X264200D01*
X266027Y32180D01*
X267730Y32885D01*
X269193Y34008D01*
X270315Y35470D01*
X271020Y37173D01*
X271260Y39000D01*
Y49000D01*
X271020Y50827D01*
X270315Y52530D01*
X269193Y53993D01*
X267730Y55114D01*
X266027Y55820D01*
X264200Y56060D01*
X263181D01*
Y84551D01*
X294748Y116118D01*
X295034Y116097D01*
X296019Y115699D01*
Y98649D01*
X281785Y84415D01*
X280922Y83124D01*
X280618Y81600D01*
Y56060D01*
X279600D01*
X277773Y55820D01*
X276070Y55114D01*
X274608Y53993D01*
X273486Y52530D01*
X272780Y50827D01*
X272540Y49000D01*
Y39000D01*
X272780Y37173D01*
X273486Y35470D01*
X274608Y34008D01*
X276070Y32885D01*
X277773Y32180D01*
X279600Y31940D01*
X289600D01*
X291427Y32180D01*
X293130Y32885D01*
X294592Y34008D01*
X295714Y35470D01*
X296420Y37173D01*
X296660Y39000D01*
Y49000D01*
X296420Y50827D01*
X295714Y52530D01*
X294592Y53993D01*
X293130Y55114D01*
X291427Y55820D01*
X289600Y56060D01*
X288582D01*
Y79951D01*
X302749Y94118D01*
X303034Y94097D01*
X304018Y93699D01*
Y55931D01*
X303173Y55820D01*
X301470Y55114D01*
X300007Y53993D01*
X298885Y52530D01*
X298180Y50827D01*
X297940Y49000D01*
Y39000D01*
X298180Y37173D01*
X298885Y35470D01*
X300007Y34008D01*
X301470Y32885D01*
X303173Y32180D01*
X305000Y31940D01*
X315000D01*
X316827Y32180D01*
X318530Y32885D01*
X319993Y34008D01*
X321115Y35470D01*
X321820Y37173D01*
X322060Y39000D01*
Y49000D01*
X321820Y50827D01*
X321115Y52530D01*
X319993Y53993D01*
X318530Y55114D01*
X316827Y55820D01*
X315000Y56060D01*
X311982D01*
Y118699D01*
X312966Y119097D01*
X313251Y119118D01*
X331418Y100951D01*
Y56060D01*
X330400D01*
X328573Y55820D01*
X326870Y55114D01*
X325407Y53993D01*
X324286Y52530D01*
X323580Y50827D01*
X323340Y49000D01*
Y39000D01*
X323580Y37173D01*
X324286Y35470D01*
X325407Y34008D01*
X326870Y32885D01*
X328573Y32180D01*
X330400Y31940D01*
X340400D01*
X342227Y32180D01*
X343930Y32885D01*
X345392Y34008D01*
X346515Y35470D01*
X347220Y37173D01*
X347460Y39000D01*
Y49000D01*
X347220Y50827D01*
X346515Y52530D01*
X345392Y53993D01*
X343930Y55114D01*
X342227Y55820D01*
X340400Y56060D01*
X339381D01*
Y102600D01*
X339078Y104124D01*
X338215Y105415D01*
X319981Y123649D01*
Y139699D01*
X320966Y140097D01*
X321251Y140118D01*
X356819Y104551D01*
Y56060D01*
X355800D01*
X353973Y55820D01*
X352270Y55114D01*
X350807Y53993D01*
X349686Y52530D01*
X348980Y50827D01*
X348740Y49000D01*
Y39000D01*
X348980Y37173D01*
X349686Y35470D01*
X350807Y34008D01*
X352270Y32885D01*
X353973Y32180D01*
X355800Y31940D01*
X365800D01*
X367627Y32180D01*
X369330Y32885D01*
X370793Y34008D01*
X371914Y35470D01*
X372620Y37173D01*
X372860Y39000D01*
Y49000D01*
X372620Y50827D01*
X371914Y52530D01*
X370793Y53993D01*
X369330Y55114D01*
X367627Y55820D01*
X365800Y56060D01*
X364781D01*
Y106200D01*
X364478Y107724D01*
X363615Y109015D01*
X327981Y144649D01*
Y172699D01*
X328966Y173097D01*
X329252Y173118D01*
X336555Y165814D01*
X336822Y164476D01*
X337685Y163185D01*
X338976Y162322D01*
X340500Y162019D01*
X342024Y162322D01*
X343315Y163185D01*
X344178Y164476D01*
X344482Y166000D01*
Y167500D01*
X344178Y169024D01*
X343315Y170315D01*
X335981Y177649D01*
Y188435D01*
X336247Y188704D01*
X337252Y189284D01*
X337938Y189147D01*
X342062D01*
X343111Y189356D01*
X344000Y189950D01*
X344594Y190839D01*
X344803Y191887D01*
Y197218D01*
X348151D01*
X353518Y191851D01*
Y174500D01*
X349500D01*
Y157500D01*
X363500D01*
Y158940D01*
X372076D01*
X384940Y146075D01*
Y99000D01*
Y31925D01*
X376076Y23060D01*
X205924D01*
X200060Y28925D01*
Y87576D01*
X248493Y136008D01*
X249615Y137470D01*
X250320Y139173D01*
X250560Y141000D01*
Y166000D01*
X250500Y166459D01*
Y166541D01*
X250560Y167000D01*
X250500Y167459D01*
Y174500D01*
X247481D01*
Y190851D01*
X253849Y197218D01*
X255197D01*
Y191887D01*
X255406Y190839D01*
X256000Y189950D01*
X256889Y189356D01*
X257938Y189147D01*
X262062D01*
X263111Y189356D01*
X264000Y189950D01*
X264594Y190839D01*
X264803Y191887D01*
Y210513D01*
X264594Y211561D01*
X264000Y212450D01*
X263111Y213044D01*
X262062Y213253D01*
X257938D01*
X256889Y213044D01*
X256000Y212450D01*
X255406Y211561D01*
X255197Y210513D01*
Y205182D01*
X252200D01*
X250676Y204878D01*
X249385Y204015D01*
X240685Y195315D01*
X239822Y194024D01*
X239519Y192500D01*
Y174500D01*
X236500D01*
Y174060D01*
X195924D01*
X183060Y186924D01*
Y211440D01*
X204500D01*
Y210500D01*
X221500D01*
Y219869D01*
X223649Y222019D01*
X230435D01*
X230704Y221753D01*
X231284Y220749D01*
X231147Y220063D01*
Y215938D01*
X231356Y214889D01*
X231950Y214000D01*
X232839Y213406D01*
X233888Y213197D01*
X252512D01*
X253561Y213406D01*
X254450Y214000D01*
X255044Y214889D01*
X255253Y215938D01*
Y220063D01*
X255044Y221111D01*
X254450Y222000D01*
X255044Y222889D01*
X255253Y223937D01*
Y228062D01*
X255044Y229111D01*
X254450Y230000D01*
X255044Y230889D01*
X255253Y231938D01*
Y236063D01*
X255044Y237111D01*
X254450Y238000D01*
X255044Y238889D01*
X255253Y239937D01*
Y244062D01*
X255044Y245111D01*
X254450Y246000D01*
X253561Y246594D01*
X252512Y246803D01*
X233888D01*
X232839Y246594D01*
X231950Y246000D01*
X231386Y245156D01*
X151332D01*
Y287455D01*
X151028Y288979D01*
X150165Y290271D01*
X142446Y297990D01*
X141154Y298853D01*
X139630Y299156D01*
X129000D01*
Y327000D01*
X113000D01*
Y293000D01*
X123165D01*
X123746Y292000D01*
X123165Y291000D01*
X113000D01*
Y257000D01*
X129000D01*
Y284844D01*
X135351D01*
X137018Y283176D01*
Y240777D01*
X137322Y239253D01*
X138185Y237961D01*
X144136Y232010D01*
X145428Y231147D01*
X146952Y230844D01*
X220108D01*
X220319Y230175D01*
X220319Y229573D01*
X219185Y228815D01*
X215437Y225067D01*
X214827Y225320D01*
X213000Y225560D01*
X147424D01*
X123492Y249492D01*
X122030Y250614D01*
X120327Y251320D01*
X118500Y251560D01*
X100601D01*
X100530Y251614D01*
X98827Y252320D01*
X97000Y252560D01*
X95173Y252320D01*
X95150Y252310D01*
X75000D01*
Y255000D01*
X55000D01*
Y235000D01*
X75000D01*
Y238190D01*
X88500D01*
Y237500D01*
X97541D01*
X98000Y237440D01*
X115576D01*
X139508Y213507D01*
X140970Y212386D01*
X142673Y211680D01*
X144500Y211440D01*
X168940D01*
Y184000D01*
X169180Y182173D01*
X169886Y180470D01*
X171008Y179007D01*
X188008Y162008D01*
X189470Y160886D01*
X191173Y160180D01*
X193000Y159940D01*
X236440D01*
Y143925D01*
X188008Y95492D01*
X186886Y94030D01*
X186180Y92327D01*
X185940Y90500D01*
Y26000D01*
X186180Y24173D01*
X186886Y22470D01*
X188008Y21008D01*
X198008Y11007D01*
X199470Y9886D01*
X201173Y9180D01*
X203000Y8940D01*
X379000D01*
X380827Y9180D01*
X382530Y9886D01*
X383993Y11007D01*
X396992Y24007D01*
X398115Y25470D01*
X398820Y27173D01*
X399060Y29000D01*
Y91940D01*
X533000D01*
X534827Y92180D01*
X536530Y92886D01*
X537992Y94008D01*
X576992Y133008D01*
X578115Y134470D01*
X578820Y136173D01*
X579060Y138000D01*
Y377000D01*
Y432000D01*
X578820Y433827D01*
X578115Y435530D01*
X576992Y436992D01*
X520993Y492992D01*
X519530Y494114D01*
X517827Y494820D01*
X516000Y495060D01*
D02*
G37*
G36*
X485000Y73095D02*
X482128Y72717D01*
X479453Y71609D01*
X477155Y69845D01*
X475392Y67547D01*
X474283Y64872D01*
X473905Y62000D01*
X474283Y59128D01*
X475392Y56452D01*
X477155Y54155D01*
X479453Y52392D01*
X482128Y51283D01*
X485000Y50905D01*
X487872Y51283D01*
X490547Y52392D01*
X492845Y54155D01*
X494608Y56452D01*
X495257Y58018D01*
X514300D01*
Y51000D01*
X536300D01*
Y73000D01*
X514300D01*
Y65981D01*
X495257D01*
X494608Y67547D01*
X492845Y69845D01*
X490547Y71609D01*
X487872Y72717D01*
X485000Y73095D01*
D02*
G37*
%LPD*%
G36*
X423016Y435096D02*
X423309Y432867D01*
X424518Y429948D01*
X426441Y427441D01*
X428948Y425518D01*
X431018Y424660D01*
Y420649D01*
X426351Y415981D01*
X405408D01*
X404861Y417046D01*
X404840Y417210D01*
X410848Y423218D01*
X411466Y424142D01*
X412733Y424309D01*
X415652Y425518D01*
X418158Y427441D01*
X420082Y429948D01*
X421291Y432867D01*
X421585Y435095D01*
X421660Y435665D01*
X422940D01*
X423016Y435096D01*
D02*
G37*
G36*
X448415D02*
X448709Y432867D01*
X449918Y429948D01*
X451842Y427441D01*
X454348Y425518D01*
X456418Y424660D01*
Y416049D01*
X448351Y407981D01*
X431301D01*
X430903Y408966D01*
X430882Y409252D01*
X437815Y416185D01*
X438678Y417476D01*
X438982Y419000D01*
Y424660D01*
X441052Y425518D01*
X443559Y427441D01*
X445482Y429948D01*
X446691Y432867D01*
X446984Y435095D01*
X447060Y435665D01*
X448340D01*
X448415Y435096D01*
D02*
G37*
G36*
X473815D02*
X474109Y432867D01*
X475318Y429948D01*
X477242Y427441D01*
X479748Y425518D01*
X481819Y424660D01*
Y413449D01*
X468351Y399981D01*
X453301D01*
X452903Y400966D01*
X452882Y401251D01*
X463215Y411585D01*
X464078Y412876D01*
X464381Y414400D01*
Y424660D01*
X466452Y425518D01*
X468959Y427441D01*
X470882Y429948D01*
X472091Y432867D01*
X472384Y435095D01*
X472460Y435665D01*
X473740D01*
X473815Y435096D01*
D02*
G37*
G36*
X418097Y399034D02*
X418118Y398749D01*
X386185Y366815D01*
X385322Y365524D01*
X385019Y364000D01*
Y353649D01*
X352351Y320981D01*
X344803D01*
Y324113D01*
X344594Y325161D01*
X344000Y326050D01*
X343111Y326644D01*
X342062Y326853D01*
X339279D01*
X338753Y328123D01*
X410649Y400019D01*
X417699D01*
X418097Y399034D01*
D02*
G37*
G36*
X160016Y388096D02*
X160309Y385867D01*
X161518Y382948D01*
X163442Y380442D01*
X165948Y378518D01*
X168018Y377660D01*
Y359000D01*
X168322Y357476D01*
X169185Y356185D01*
X189185Y336185D01*
X190476Y335322D01*
X192000Y335019D01*
X222351D01*
X239219Y318151D01*
Y302803D01*
X233888D01*
X232839Y302594D01*
X231950Y302000D01*
X231356Y301111D01*
X231147Y300063D01*
Y295938D01*
X231284Y295252D01*
X230704Y294247D01*
X230435Y293981D01*
X226649D01*
X185815Y334815D01*
X184524Y335678D01*
X183000Y335981D01*
X163649D01*
X150582Y349049D01*
Y377660D01*
X152652Y378518D01*
X155159Y380442D01*
X157082Y382948D01*
X158291Y385867D01*
X158584Y388096D01*
X158660Y388666D01*
X159940D01*
X160016Y388096D01*
D02*
G37*
G36*
X134615D02*
X134909Y385867D01*
X136118Y382948D01*
X138041Y380442D01*
X140548Y378518D01*
X142619Y377660D01*
Y347400D01*
X142922Y345876D01*
X143785Y344585D01*
X159185Y329185D01*
X160476Y328322D01*
X162000Y328018D01*
X181351D01*
X222118Y287251D01*
X222097Y286966D01*
X221699Y285982D01*
X215649D01*
X180815Y320815D01*
X179524Y321678D01*
X178000Y321982D01*
X158649D01*
X125182Y355449D01*
Y377660D01*
X127252Y378518D01*
X129759Y380442D01*
X131682Y382948D01*
X132891Y385867D01*
X133184Y388096D01*
X133260Y388666D01*
X134540D01*
X134615Y388096D01*
D02*
G37*
G36*
X185415D02*
X185709Y385867D01*
X186918Y382948D01*
X188841Y380442D01*
X191348Y378518D01*
X193419Y377660D01*
Y369600D01*
X193722Y368076D01*
X194585Y366785D01*
X210185Y351185D01*
X211476Y350322D01*
X213000Y350019D01*
X241351D01*
X262462Y328907D01*
X262449Y327226D01*
X262062Y326853D01*
X257938D01*
X256889Y326644D01*
X256000Y326050D01*
X255406Y325161D01*
X255197Y324113D01*
Y305487D01*
X255406Y304439D01*
X256000Y303550D01*
X256889Y302956D01*
X257938Y302747D01*
X262062D01*
X263111Y302956D01*
X264000Y303550D01*
X264889Y302956D01*
X265938Y302747D01*
X270063D01*
X270749Y302884D01*
X271753Y302304D01*
X272019Y302035D01*
Y277649D01*
X264351Y269981D01*
X255965D01*
X255696Y270247D01*
X255116Y271252D01*
X255253Y271938D01*
Y276063D01*
X255044Y277111D01*
X254450Y278000D01*
X255044Y278889D01*
X255253Y279937D01*
Y284062D01*
X255044Y285111D01*
X254450Y286000D01*
X255044Y286889D01*
X255253Y287938D01*
Y292062D01*
X255044Y293111D01*
X254450Y294000D01*
X255044Y294889D01*
X255253Y295938D01*
Y300063D01*
X255044Y301111D01*
X254450Y302000D01*
X253561Y302594D01*
X252512Y302803D01*
X247181D01*
Y319800D01*
X246878Y321324D01*
X246015Y322616D01*
X226815Y341815D01*
X225524Y342678D01*
X224000Y342981D01*
X193649D01*
X175982Y360649D01*
Y377660D01*
X178052Y378518D01*
X180558Y380442D01*
X182482Y382948D01*
X183691Y385867D01*
X183985Y388096D01*
X184060Y388666D01*
X185340D01*
X185415Y388096D01*
D02*
G37*
D10*
X262000Y144000D02*
D03*
Y129000D02*
D03*
X97000Y229500D02*
D03*
Y244500D02*
D03*
X213000Y202500D02*
D03*
Y217500D02*
D03*
X387000Y314500D02*
D03*
Y299500D02*
D03*
D11*
X258500Y166000D02*
D03*
X243500D02*
D03*
X167500Y280000D02*
D03*
X182500D02*
D03*
X341500Y166000D02*
D03*
X356500D02*
D03*
X287500Y365000D02*
D03*
X272500D02*
D03*
X344500Y469000D02*
D03*
X329500D02*
D03*
X259500D02*
D03*
X274500D02*
D03*
D12*
X356800Y218000D02*
D03*
Y226000D02*
D03*
Y234000D02*
D03*
Y242000D02*
D03*
Y250000D02*
D03*
Y258000D02*
D03*
Y266000D02*
D03*
Y274000D02*
D03*
Y282000D02*
D03*
Y290000D02*
D03*
Y298000D02*
D03*
X243200D02*
D03*
Y290000D02*
D03*
Y282000D02*
D03*
Y274000D02*
D03*
Y266000D02*
D03*
Y258000D02*
D03*
Y250000D02*
D03*
Y242000D02*
D03*
Y234000D02*
D03*
Y226000D02*
D03*
Y218000D02*
D03*
D13*
X260000Y201200D02*
D03*
X268000D02*
D03*
X276000D02*
D03*
X284000D02*
D03*
X292000D02*
D03*
X300000D02*
D03*
X308000D02*
D03*
X316000D02*
D03*
X324000D02*
D03*
X332000D02*
D03*
X340000D02*
D03*
Y314800D02*
D03*
X332000D02*
D03*
X324000D02*
D03*
X316000D02*
D03*
X308000D02*
D03*
X300000D02*
D03*
X292000D02*
D03*
X284000D02*
D03*
X276000D02*
D03*
X268000D02*
D03*
X260000D02*
D03*
D14*
X91000Y310000D02*
D03*
X121000D02*
D03*
X91000Y274000D02*
D03*
X121000D02*
D03*
D15*
X393000Y186500D02*
D03*
Y205500D02*
D03*
D16*
X183500Y257000D02*
D03*
X166500D02*
D03*
D17*
X107000Y423000D02*
D03*
X91000D02*
D03*
D18*
X262000Y144000D02*
X272000D01*
X276000Y148000D01*
X243500Y167000D02*
Y192500D01*
Y166000D02*
Y167000D01*
X233800Y77800D02*
X284000Y128000D01*
X233800Y44000D02*
Y77800D01*
X284000Y128000D02*
Y201200D01*
X485000Y62000D02*
X525300D01*
X485000Y138300D02*
X529300D01*
X539000Y148000D01*
Y173400D01*
X276000Y148000D02*
Y201200D01*
Y276000D02*
Y314800D01*
X266000Y266000D02*
X276000Y276000D01*
X136000Y423000D02*
X201000D01*
X243200Y266000D02*
X266000D01*
X356800Y218000D02*
X357645Y217155D01*
X340845Y314949D02*
X341101D01*
X340000Y314800D02*
X340845Y314949D01*
X211000Y266000D02*
X243200D01*
X222000Y226000D02*
X243200D01*
X197000Y280000D02*
X211000Y266000D01*
X242375Y241175D02*
X243200Y242000D01*
X141000Y240777D02*
Y284825D01*
X242375Y234825D02*
X243200Y234000D01*
X147350Y243407D02*
X149582Y241175D01*
X141000Y240777D02*
X146952Y234825D01*
X149582Y241175D02*
X242375D01*
X147350Y243407D02*
Y287455D01*
X146952Y234825D02*
X242375D01*
X340000Y314800D02*
Y316155D01*
X340845Y317000D01*
X354000D01*
X389000Y352000D01*
Y364000D01*
X421000Y396000D01*
X308000Y314800D02*
Y336000D01*
X384200Y412200D01*
Y436000D01*
X300000Y337000D02*
X313000Y350000D01*
Y432200D01*
X328500Y447700D01*
X300000Y314800D02*
Y337000D01*
X316000Y334000D02*
X408033Y426033D01*
Y434433D02*
X409600Y436000D01*
X408033Y426033D02*
Y434433D01*
X316000Y314800D02*
Y334000D01*
X405000Y412000D02*
X428000D01*
X324000Y331000D02*
X405000Y412000D01*
X324000Y314800D02*
Y331000D01*
X428000Y412000D02*
X435000Y419000D01*
X409000Y404000D02*
X450000D01*
X332305Y327305D02*
X409000Y404000D01*
X450000D02*
X460400Y414400D01*
X421000Y396000D02*
X470000D01*
X332305Y315105D02*
Y327305D01*
X332000Y314800D02*
X332305Y315105D01*
X435000Y419000D02*
Y436000D01*
X460400Y414400D02*
Y436000D01*
X470000Y396000D02*
X485800Y411800D01*
Y436000D01*
X107000Y423000D02*
X136000D01*
X214500Y218500D02*
X222000Y226000D01*
X213000Y218500D02*
X214500D01*
X356800Y218000D02*
X378500D01*
X391000Y205500D01*
X393000D01*
X440000Y226000D02*
X492600Y173400D01*
X539000D01*
X356800Y226000D02*
X440000D01*
X452000Y234000D02*
X487200Y198800D01*
X539000D01*
X356800Y234000D02*
X452000D01*
X489800Y224200D02*
X539000D01*
X472000Y242000D02*
X489800Y224200D01*
X356800Y242000D02*
X472000D01*
X357000Y249800D02*
X538800D01*
X539000Y249600D01*
X356800Y250000D02*
X357000Y249800D01*
X466000Y258000D02*
X483000Y275000D01*
X539000D01*
X356800Y258000D02*
X466000D01*
X457000Y266000D02*
X491400Y300400D01*
X539000D01*
X356800Y266000D02*
X457000D01*
X484000Y327000D02*
X537800D01*
X539000Y325800D01*
X473000Y316000D02*
X484000Y327000D01*
X473000Y298000D02*
Y316000D01*
X449000Y274000D02*
X473000Y298000D01*
X356800Y274000D02*
X449000D01*
X441000Y282000D02*
X461000Y302000D01*
X469200Y351200D02*
X539000D01*
X461000Y302000D02*
Y343000D01*
X469200Y351200D01*
X356800Y282000D02*
X441000D01*
X126825Y295175D02*
X139630D01*
X147350Y287455D01*
X137000Y288825D02*
X141000Y284825D01*
X126825Y288825D02*
X137000D01*
X121000Y283000D02*
X126825Y288825D01*
X121000Y301000D02*
X126825Y295175D01*
X332000Y176000D02*
X340500Y167500D01*
Y166000D02*
Y167500D01*
X332000Y176000D02*
Y201200D01*
X349800D02*
X357500Y193500D01*
Y166000D02*
Y193500D01*
X340000Y201200D02*
X349800D01*
X405502Y300502D02*
X415902D01*
X403500Y298500D02*
X405502Y300502D01*
X415902D02*
X419000Y303600D01*
X377000Y290000D02*
X385500Y298500D01*
X403500D01*
X356800Y290000D02*
X377000D01*
X328500Y447700D02*
Y466000D01*
X275500Y446500D02*
X276000Y446000D01*
X275500Y446500D02*
Y470000D01*
X280595Y441405D02*
Y441905D01*
X276000Y446000D02*
X276500D01*
X280595Y441905D01*
Y441405D02*
X306000Y416000D01*
Y353000D02*
Y416000D01*
X292000Y339000D02*
X306000Y353000D01*
X292000Y314800D02*
Y339000D01*
X288500Y345500D02*
Y365000D01*
X284000Y341000D02*
X288500Y345500D01*
X284000Y314800D02*
Y341000D01*
X271500Y345500D02*
Y365000D01*
Y345500D02*
X276000Y341000D01*
Y314800D02*
Y341000D01*
X121200Y353800D02*
X157000Y318000D01*
X178000D01*
X121200Y353800D02*
Y389000D01*
X121000Y274000D02*
Y283000D01*
Y301000D02*
Y310000D01*
X71905Y296905D02*
X86905D01*
X91000Y301000D01*
X45000Y270000D02*
X71905Y296905D01*
X91000Y301000D02*
Y310000D01*
X65000Y270000D02*
X87000D01*
X91000Y274000D01*
X259200Y86200D02*
X292000Y119000D01*
X259200Y44000D02*
Y86200D01*
X292000Y119000D02*
Y201200D01*
X284600Y81600D02*
X300000Y97000D01*
X284600Y44000D02*
Y81600D01*
X300000Y97000D02*
Y201200D01*
X308000Y46000D02*
X310000Y44000D01*
X308000Y46000D02*
Y201200D01*
X316000Y122000D02*
X335400Y102600D01*
Y44000D02*
Y102600D01*
X316000Y122000D02*
Y201200D01*
X360800Y44000D02*
Y106200D01*
X324000Y143000D02*
X360800Y106200D01*
X324000Y143000D02*
Y201200D01*
X224000Y339000D02*
X243200Y319800D01*
X172000Y359000D02*
X192000Y339000D01*
X224000D01*
X243200Y298000D02*
Y319800D01*
X252200Y201200D02*
X260000D01*
X243500Y192500D02*
X252200Y201200D01*
X96500Y245000D02*
X97000Y245500D01*
X184500Y258000D02*
X243200D01*
X183500Y257000D02*
X184500Y258000D01*
X183500Y280000D02*
X197000D01*
X183000Y332000D02*
X225000Y290000D01*
X162000Y332000D02*
X183000D01*
X214000Y282000D02*
X243200D01*
X178000Y318000D02*
X214000Y282000D01*
X146600Y347400D02*
Y389000D01*
Y347400D02*
X162000Y332000D01*
X225000Y290000D02*
X243200D01*
X172000Y359000D02*
Y389000D01*
X199200Y390800D02*
Y421200D01*
X201000Y423000D01*
X197400Y389000D02*
X199200Y390800D01*
X197400Y369600D02*
Y389000D01*
Y369600D02*
X213000Y354000D01*
X243000D01*
X267155Y329845D01*
Y315645D02*
X268000Y314800D01*
X267155Y315645D02*
Y329845D01*
D19*
X193000Y167000D02*
X243500D01*
X193000Y90500D02*
X243500Y141000D01*
Y166000D01*
X176000Y218500D02*
X213000D01*
X144500D02*
X176000D01*
X167000Y488000D02*
X516000D01*
X109000D02*
X167000D01*
Y458000D02*
Y488000D01*
X572000Y377000D02*
Y432000D01*
Y138000D02*
Y377000D01*
X91000Y423000D02*
Y470000D01*
X109000Y488000D01*
X516000D02*
X572000Y432000D01*
X566000Y383000D02*
X572000Y377000D01*
X428000Y383000D02*
X566000D01*
X420913Y375913D02*
X428000Y383000D01*
X236000Y382000D02*
X253000Y365000D01*
X271500D01*
X236000Y382000D02*
Y421000D01*
X213000Y444000D02*
X236000Y421000D01*
X181000Y444000D02*
X213000D01*
X167000Y458000D02*
X181000Y444000D01*
X419000Y303600D02*
X438142D01*
X444000Y309458D02*
Y346629D01*
X438142Y303600D02*
X444000Y309458D01*
X420913Y352487D02*
X438142D01*
X444000Y346629D01*
X419000Y354400D02*
X420913Y352487D01*
X392000Y29000D02*
Y99000D01*
X420913Y356313D02*
Y375913D01*
X419000Y354400D02*
X420913Y356313D01*
X533000Y99000D02*
X572000Y138000D01*
X392000Y99000D02*
X533000D01*
X392000D02*
Y149000D01*
X357500Y166000D02*
X375000D01*
X392000Y149000D01*
X379000Y16000D02*
X392000Y29000D01*
X203000Y16000D02*
X379000D01*
X193000Y26000D02*
X203000Y16000D01*
X193000Y26000D02*
Y90500D01*
X176000Y184000D02*
X193000Y167000D01*
X176000Y184000D02*
Y218500D01*
X118500Y244500D02*
X144500Y218500D01*
X98000Y244500D02*
X118500D01*
X97000Y245500D02*
X98000Y244500D01*
X65250Y245250D02*
X96250D01*
D20*
X96500Y245000D01*
X65000D02*
X65250Y245250D01*
D21*
X525300Y62000D02*
D03*
D22*
X550700D02*
D03*
X485000D02*
D03*
Y138300D02*
D03*
D23*
X485800Y436000D02*
D03*
X460400D02*
D03*
X435000D02*
D03*
X409600D02*
D03*
X419000Y329000D02*
D03*
X197400Y389000D02*
D03*
X172000D02*
D03*
X146600D02*
D03*
X121200D02*
D03*
X419000Y303600D02*
D03*
Y354400D02*
D03*
X136000Y468000D02*
D03*
X201000D02*
D03*
Y423000D02*
D03*
X136000D02*
D03*
D24*
X384200Y436000D02*
D03*
X539000Y351200D02*
D03*
X95800Y389000D02*
D03*
D25*
X539000Y325800D02*
D03*
Y300400D02*
D03*
Y275000D02*
D03*
Y249600D02*
D03*
Y224200D02*
D03*
Y198800D02*
D03*
Y173400D02*
D03*
D26*
X233800Y44000D02*
D03*
X326800Y446000D02*
D03*
X276000D02*
D03*
D27*
X259200Y44000D02*
D03*
X284600D02*
D03*
X310000D02*
D03*
X335400D02*
D03*
X360800D02*
D03*
D28*
X17900Y197300D02*
D03*
Y317700D02*
D03*
D29*
X45000Y245000D02*
D03*
Y270000D02*
D03*
X65000D02*
D03*
D30*
Y245000D02*
D03*
M02*
